<mxfile host="app.diagrams.net" agent="Mozilla/5.0 (Windows NT 10.0; Win64; x64) AppleWebKit/537.36 (KHTML, like Gecko) Chrome/130.0.0.0 Safari/537.36" version="24.8.4">
  <diagram name="Trang-1" id="PguIR02crFdKJNFzGEjx">
    <mxGraphModel grid="0" page="1" gridSize="10" guides="1" tooltips="1" connect="1" arrows="1" fold="1" pageScale="1" pageWidth="827" pageHeight="1169" math="0" shadow="0">
      <root>
        <mxCell id="0" />
        <mxCell id="1" parent="0" />
        <mxCell id="MFWYvMfGWzJNx2VH8PIG-14" value="SPSS" style="shape=folder;fontStyle=1;tabWidth=280;tabHeight=40;tabPosition=left;html=1;boundedLbl=1;labelInHeader=1;container=1;collapsible=0;whiteSpace=wrap;fontSize=20;" vertex="1" parent="1">
          <mxGeometry y="-40" width="1970" height="1310" as="geometry" />
        </mxCell>
        <mxCell id="MFWYvMfGWzJNx2VH8PIG-15" value="" style="html=1;strokeColor=none;resizeWidth=1;resizeHeight=1;fillColor=none;part=1;connectable=0;allowArrows=0;deletable=0;whiteSpace=wrap;fontSize=20;" vertex="1" parent="MFWYvMfGWzJNx2VH8PIG-14">
          <mxGeometry width="1712.3846153846155" height="773.3734939759036" relative="1" as="geometry">
            <mxPoint y="30" as="offset" />
          </mxGeometry>
        </mxCell>
        <mxCell id="MFWYvMfGWzJNx2VH8PIG-34" value="API Management layer" style="shape=folder;fontStyle=1;tabWidth=240;tabHeight=40;tabPosition=left;html=1;boundedLbl=1;labelInHeader=1;container=1;collapsible=0;whiteSpace=wrap;fontSize=20;" vertex="1" parent="MFWYvMfGWzJNx2VH8PIG-14">
          <mxGeometry x="1230" y="984" width="690" height="210" as="geometry" />
        </mxCell>
        <mxCell id="MFWYvMfGWzJNx2VH8PIG-35" value="" style="html=1;strokeColor=none;resizeWidth=1;resizeHeight=1;fillColor=none;part=1;connectable=0;allowArrows=0;deletable=0;whiteSpace=wrap;fontSize=20;" vertex="1" parent="MFWYvMfGWzJNx2VH8PIG-34">
          <mxGeometry width="689.9999999999998" height="147" relative="1" as="geometry">
            <mxPoint y="30" as="offset" />
          </mxGeometry>
        </mxCell>
        <mxCell id="MFWYvMfGWzJNx2VH8PIG-37" value="HCMUT_SSO" style="shape=folder;fontStyle=1;tabWidth=70;tabHeight=20;tabPosition=left;html=1;boundedLbl=1;whiteSpace=wrap;fontSize=20;" vertex="1" parent="MFWYvMfGWzJNx2VH8PIG-34">
          <mxGeometry x="47.91555555555556" y="76" width="154.16666666666666" height="80" as="geometry" />
        </mxCell>
        <mxCell id="MFWYvMfGWzJNx2VH8PIG-42" value="Printer driver" style="shape=folder;fontStyle=1;tabWidth=70;tabHeight=20;tabPosition=left;html=1;boundedLbl=1;whiteSpace=wrap;fontSize=20;" vertex="1" parent="MFWYvMfGWzJNx2VH8PIG-34">
          <mxGeometry x="267.9177777777779" y="76" width="154.16666666666666" height="80" as="geometry" />
        </mxCell>
        <mxCell id="BklLOhfFkBurZudcxk5p-14" value="BKPay" style="shape=folder;fontStyle=1;tabWidth=70;tabHeight=20;tabPosition=left;html=1;boundedLbl=1;whiteSpace=wrap;fontSize=20;" vertex="1" parent="MFWYvMfGWzJNx2VH8PIG-34">
          <mxGeometry x="487.9177777777779" y="76" width="154.16666666666666" height="80" as="geometry" />
        </mxCell>
        <mxCell id="MFWYvMfGWzJNx2VH8PIG-30" value="Data layer" style="shape=folder;fontStyle=1;tabWidth=141;tabHeight=40;tabPosition=left;html=1;boundedLbl=1;labelInHeader=1;container=1;collapsible=0;whiteSpace=wrap;fontSize=20;" vertex="1" parent="MFWYvMfGWzJNx2VH8PIG-14">
          <mxGeometry x="356.99999999999994" y="969" width="470" height="240" as="geometry" />
        </mxCell>
        <mxCell id="MFWYvMfGWzJNx2VH8PIG-31" value="" style="html=1;strokeColor=none;resizeWidth=1;resizeHeight=1;fillColor=none;part=1;connectable=0;allowArrows=0;deletable=0;whiteSpace=wrap;fontSize=20;" vertex="1" parent="MFWYvMfGWzJNx2VH8PIG-30">
          <mxGeometry width="469.99999999999994" height="168" relative="1" as="geometry">
            <mxPoint y="30" as="offset" />
          </mxGeometry>
        </mxCell>
        <mxCell id="MFWYvMfGWzJNx2VH8PIG-33" value="Log query service" style="shape=folder;fontStyle=1;tabWidth=70;tabHeight=20;tabPosition=left;html=1;boundedLbl=1;whiteSpace=wrap;fontSize=20;" vertex="1" parent="MFWYvMfGWzJNx2VH8PIG-30">
          <mxGeometry x="280" y="80" width="150" height="80" as="geometry" />
        </mxCell>
        <mxCell id="MFWYvMfGWzJNx2VH8PIG-32" value="Log service" style="shape=folder;fontStyle=1;tabWidth=70;tabHeight=20;tabPosition=left;html=1;boundedLbl=1;whiteSpace=wrap;fontSize=20;" vertex="1" parent="MFWYvMfGWzJNx2VH8PIG-30">
          <mxGeometry x="60" y="80" width="150" height="80" as="geometry" />
        </mxCell>
        <mxCell id="MFWYvMfGWzJNx2VH8PIG-17" value="Application layer" style="shape=folder;fontStyle=1;tabWidth=264;tabHeight=42;tabPosition=left;html=1;boundedLbl=1;labelInHeader=1;container=1;collapsible=0;whiteSpace=wrap;fontSize=20;" vertex="1" parent="MFWYvMfGWzJNx2VH8PIG-14">
          <mxGeometry x="53.46" y="420" width="1256.54" height="434.46" as="geometry" />
        </mxCell>
        <mxCell id="MFWYvMfGWzJNx2VH8PIG-18" value="" style="html=1;strokeColor=none;resizeWidth=1;resizeHeight=1;fillColor=none;part=1;connectable=0;allowArrows=0;deletable=0;whiteSpace=wrap;fontSize=20;" vertex="1" parent="MFWYvMfGWzJNx2VH8PIG-17">
          <mxGeometry width="1256.5400000000006" height="304.122" relative="1" as="geometry">
            <mxPoint y="30" as="offset" />
          </mxGeometry>
        </mxCell>
        <mxCell id="MFWYvMfGWzJNx2VH8PIG-25" value="SPSO" style="shape=folder;fontStyle=1;tabWidth=110;tabHeight=30;tabPosition=left;html=1;boundedLbl=1;labelInHeader=1;container=1;collapsible=0;whiteSpace=wrap;fontSize=20;" vertex="1" parent="MFWYvMfGWzJNx2VH8PIG-17">
          <mxGeometry x="720" y="87.23" width="503.54" height="260" as="geometry" />
        </mxCell>
        <mxCell id="MFWYvMfGWzJNx2VH8PIG-26" value="" style="html=1;strokeColor=none;resizeWidth=1;resizeHeight=1;fillColor=none;part=1;connectable=0;allowArrows=0;deletable=0;whiteSpace=wrap;fontSize=20;" vertex="1" parent="MFWYvMfGWzJNx2VH8PIG-25">
          <mxGeometry width="503.53999999999996" height="182" relative="1" as="geometry">
            <mxPoint y="30" as="offset" />
          </mxGeometry>
        </mxCell>
        <mxCell id="MFWYvMfGWzJNx2VH8PIG-27" value="SPSO printer management" style="shape=folder;fontStyle=1;tabWidth=70;tabHeight=25;tabPosition=left;html=1;boundedLbl=1;whiteSpace=wrap;fontSize=20;" vertex="1" parent="MFWYvMfGWzJNx2VH8PIG-25">
          <mxGeometry x="15.496700408163266" y="91.59" width="148.92452408163265" height="98.41" as="geometry" />
        </mxCell>
        <mxCell id="MFWYvMfGWzJNx2VH8PIG-28" value="SPSO system config" style="shape=folder;fontStyle=1;tabWidth=70;tabHeight=25;tabPosition=left;html=1;boundedLbl=1;whiteSpace=wrap;fontSize=20;" vertex="1" parent="MFWYvMfGWzJNx2VH8PIG-25">
          <mxGeometry x="182.8569542857143" y="91.59" width="137.82609142857143" height="98.41" as="geometry" />
        </mxCell>
        <mxCell id="MFWYvMfGWzJNx2VH8PIG-29" value="&lt;font style=&quot;font-size: 20px;&quot;&gt;Printing statistics for SPSO&lt;/font&gt;" style="shape=folder;fontStyle=1;tabWidth=70;tabHeight=25;tabPosition=left;html=1;boundedLbl=1;whiteSpace=wrap;fontSize=20;" vertex="1" parent="MFWYvMfGWzJNx2VH8PIG-25">
          <mxGeometry x="339.1187755102041" y="91.58" width="157.5977436734694" height="98.42" as="geometry" />
        </mxCell>
        <mxCell id="MFWYvMfGWzJNx2VH8PIG-20" value="Student" style="shape=folder;fontStyle=1;tabWidth=114;tabHeight=35;tabPosition=left;html=1;boundedLbl=1;labelInHeader=1;container=1;collapsible=0;whiteSpace=wrap;fontSize=20;" vertex="1" parent="MFWYvMfGWzJNx2VH8PIG-17">
          <mxGeometry x="56.54" y="87.23000000000002" width="620" height="260" as="geometry" />
        </mxCell>
        <mxCell id="MFWYvMfGWzJNx2VH8PIG-21" value="" style="html=1;strokeColor=none;resizeWidth=1;resizeHeight=1;fillColor=none;part=1;connectable=0;allowArrows=0;deletable=0;whiteSpace=wrap;fontSize=20;" vertex="1" parent="MFWYvMfGWzJNx2VH8PIG-20">
          <mxGeometry width="620" height="182" relative="1" as="geometry">
            <mxPoint y="30" as="offset" />
          </mxGeometry>
        </mxCell>
        <mxCell id="MFWYvMfGWzJNx2VH8PIG-22" value="Student print" style="shape=folder;fontStyle=1;tabWidth=70;tabHeight=25;tabPosition=left;html=1;boundedLbl=1;whiteSpace=wrap;fontSize=20;" vertex="1" parent="MFWYvMfGWzJNx2VH8PIG-20">
          <mxGeometry x="30" y="80.79999999999995" width="134.12" height="98.41" as="geometry" />
        </mxCell>
        <mxCell id="MFWYvMfGWzJNx2VH8PIG-23" value="Student purchase" style="shape=folder;fontStyle=1;tabWidth=70;tabHeight=25;tabPosition=left;html=1;boundedLbl=1;whiteSpace=wrap;fontSize=20;" vertex="1" parent="MFWYvMfGWzJNx2VH8PIG-20">
          <mxGeometry x="192.86" y="80.79999999999995" width="134.12" height="98.41" as="geometry" />
        </mxCell>
        <mxCell id="MFWYvMfGWzJNx2VH8PIG-24" value="&lt;font style=&quot;font-size: 20px;&quot;&gt;Student account&lt;/font&gt;" style="shape=folder;fontStyle=1;tabWidth=70;tabHeight=25;tabPosition=left;html=1;boundedLbl=1;whiteSpace=wrap;fontSize=20;" vertex="1" parent="MFWYvMfGWzJNx2VH8PIG-20">
          <mxGeometry x="454.91999999999996" y="80.79999999999995" width="134.12" height="98.41" as="geometry" />
        </mxCell>
        <mxCell id="BklLOhfFkBurZudcxk5p-12" style="edgeStyle=orthogonalEdgeStyle;rounded=0;orthogonalLoop=1;jettySize=auto;html=1;exitX=0;exitY=0;exitDx=0;exitDy=61.705;exitPerimeter=0;entryX=0;entryY=0;entryDx=134.12;entryDy=61.705;entryPerimeter=0;dashed=1;" edge="1" parent="MFWYvMfGWzJNx2VH8PIG-20" source="MFWYvMfGWzJNx2VH8PIG-24" target="MFWYvMfGWzJNx2VH8PIG-23">
          <mxGeometry relative="1" as="geometry" />
        </mxCell>
        <mxCell id="MFWYvMfGWzJNx2VH8PIG-16" value="" style="group;fontSize=20;" vertex="1" connectable="0" parent="MFWYvMfGWzJNx2VH8PIG-14">
          <mxGeometry x="400" y="80" width="1170" height="286.27" as="geometry" />
        </mxCell>
        <mxCell id="MFWYvMfGWzJNx2VH8PIG-12" value="Presentation Layer" style="shape=folder;fontStyle=1;tabWidth=229;tabHeight=40;tabPosition=left;html=1;boundedLbl=1;labelInHeader=1;container=1;collapsible=0;whiteSpace=wrap;fontSize=20;" vertex="1" parent="MFWYvMfGWzJNx2VH8PIG-16">
          <mxGeometry width="1170" height="286.27" as="geometry" />
        </mxCell>
        <mxCell id="MFWYvMfGWzJNx2VH8PIG-13" value="" style="html=1;strokeColor=none;resizeWidth=1;resizeHeight=1;fillColor=none;part=1;connectable=0;allowArrows=0;deletable=0;whiteSpace=wrap;fontSize=20;" vertex="1" parent="MFWYvMfGWzJNx2VH8PIG-12">
          <mxGeometry width="1170" height="200.38899999999998" relative="1" as="geometry">
            <mxPoint y="30" as="offset" />
          </mxGeometry>
        </mxCell>
        <mxCell id="MFWYvMfGWzJNx2VH8PIG-5" value="Login" style="shape=folder;fontStyle=1;tabWidth=50;tabHeight=20;tabPosition=left;html=1;boundedLbl=1;whiteSpace=wrap;fontSize=20;" vertex="1" parent="MFWYvMfGWzJNx2VH8PIG-12">
          <mxGeometry x="872.916153846154" y="50.00036144578313" width="150.76923076923077" height="95.42168674698794" as="geometry" />
        </mxCell>
        <mxCell id="MFWYvMfGWzJNx2VH8PIG-7" value="SPSO interface" style="shape=folder;fontStyle=1;tabWidth=50;tabHeight=20;tabPosition=left;html=1;boundedLbl=1;whiteSpace=wrap;fontSize=20;" vertex="1" parent="MFWYvMfGWzJNx2VH8PIG-12">
          <mxGeometry x="597.0015384615384" y="160.00036144578314" width="150.76923076923077" height="95.42168674698794" as="geometry" />
        </mxCell>
        <mxCell id="MFWYvMfGWzJNx2VH8PIG-6" value="Student interface" style="shape=folder;fontStyle=1;tabWidth=50;tabHeight=20;tabPosition=left;html=1;boundedLbl=1;whiteSpace=wrap;fontSize=20;" vertex="1" parent="MFWYvMfGWzJNx2VH8PIG-12">
          <mxGeometry x="42.693846153846096" y="160.00036144578314" width="150.76923076923077" height="95.42168674698794" as="geometry" />
        </mxCell>
        <mxCell id="BklLOhfFkBurZudcxk5p-10" style="edgeStyle=orthogonalEdgeStyle;rounded=0;orthogonalLoop=1;jettySize=auto;html=1;exitX=0;exitY=0;exitDx=0;exitDy=57.71084337349397;exitPerimeter=0;entryX=0;entryY=0;entryDx=100.38461538461539;entryDy=20;entryPerimeter=0;dashed=1;" edge="1" parent="MFWYvMfGWzJNx2VH8PIG-12" source="MFWYvMfGWzJNx2VH8PIG-5" target="MFWYvMfGWzJNx2VH8PIG-7">
          <mxGeometry relative="1" as="geometry" />
        </mxCell>
        <mxCell id="BklLOhfFkBurZudcxk5p-11" style="edgeStyle=orthogonalEdgeStyle;rounded=0;orthogonalLoop=1;jettySize=auto;html=1;entryX=0;entryY=0;entryDx=100.38461538461539;entryDy=20;entryPerimeter=0;dashed=1;" edge="1" parent="MFWYvMfGWzJNx2VH8PIG-12" source="MFWYvMfGWzJNx2VH8PIG-5" target="MFWYvMfGWzJNx2VH8PIG-6">
          <mxGeometry relative="1" as="geometry" />
        </mxCell>
        <mxCell id="BklLOhfFkBurZudcxk5p-1" style="edgeStyle=orthogonalEdgeStyle;rounded=0;orthogonalLoop=1;jettySize=auto;html=1;exitX=0.5;exitY=1;exitDx=0;exitDy=0;exitPerimeter=0;entryX=0;entryY=0;entryDx=300;entryDy=30;entryPerimeter=0;dashed=1;" edge="1" parent="MFWYvMfGWzJNx2VH8PIG-14" source="MFWYvMfGWzJNx2VH8PIG-7" target="MFWYvMfGWzJNx2VH8PIG-25">
          <mxGeometry relative="1" as="geometry" />
        </mxCell>
        <mxCell id="MFWYvMfGWzJNx2VH8PIG-38" style="edgeStyle=orthogonalEdgeStyle;rounded=0;orthogonalLoop=1;jettySize=auto;html=1;entryX=0;entryY=0;entryDx=302;entryDy=35;entryPerimeter=0;dashed=1;" edge="1" parent="MFWYvMfGWzJNx2VH8PIG-14" source="MFWYvMfGWzJNx2VH8PIG-6" target="MFWYvMfGWzJNx2VH8PIG-20">
          <mxGeometry relative="1" as="geometry" />
        </mxCell>
        <mxCell id="BklLOhfFkBurZudcxk5p-2" style="edgeStyle=orthogonalEdgeStyle;rounded=0;orthogonalLoop=1;jettySize=auto;html=1;exitX=0.5;exitY=1;exitDx=0;exitDy=0;exitPerimeter=0;entryX=0;entryY=0;entryDx=70;entryDy=20;entryPerimeter=0;dashed=1;" edge="1" parent="MFWYvMfGWzJNx2VH8PIG-14" source="MFWYvMfGWzJNx2VH8PIG-5" target="MFWYvMfGWzJNx2VH8PIG-37">
          <mxGeometry relative="1" as="geometry" />
        </mxCell>
        <mxCell id="9V1_FmD4qYmKyHSSPLxR-8" style="edgeStyle=orthogonalEdgeStyle;rounded=0;orthogonalLoop=1;jettySize=auto;html=1;exitX=0.75;exitY=1;exitDx=0;exitDy=0;exitPerimeter=0;entryX=0;entryY=0;entryDx=305.5;entryDy=40;entryPerimeter=0;dashed=1;" edge="1" parent="MFWYvMfGWzJNx2VH8PIG-14" source="MFWYvMfGWzJNx2VH8PIG-17" target="MFWYvMfGWzJNx2VH8PIG-30">
          <mxGeometry relative="1" as="geometry" />
        </mxCell>
        <mxCell id="9V1_FmD4qYmKyHSSPLxR-9" style="edgeStyle=orthogonalEdgeStyle;rounded=0;orthogonalLoop=1;jettySize=auto;html=1;exitX=0.75;exitY=1;exitDx=0;exitDy=0;exitPerimeter=0;entryX=0;entryY=0;entryDx=465;entryDy=40;entryPerimeter=0;dashed=1;" edge="1" parent="MFWYvMfGWzJNx2VH8PIG-14" source="MFWYvMfGWzJNx2VH8PIG-17" target="MFWYvMfGWzJNx2VH8PIG-34">
          <mxGeometry relative="1" as="geometry">
            <Array as="points">
              <mxPoint x="996" y="910" />
              <mxPoint x="1695" y="910" />
            </Array>
          </mxGeometry>
        </mxCell>
        <mxCell id="MFWYvMfGWzJNx2VH8PIG-8" style="edgeStyle=orthogonalEdgeStyle;rounded=0;orthogonalLoop=1;jettySize=auto;html=1;exitX=0.5;exitY=1;exitDx=0;exitDy=0;exitPerimeter=0;fontSize=20;" edge="1" parent="1">
          <mxGeometry relative="1" as="geometry">
            <mxPoint x="344.9999999999998" y="310.0000000000001" as="sourcePoint" />
            <mxPoint x="344.9999999999998" y="310.0000000000001" as="targetPoint" />
          </mxGeometry>
        </mxCell>
      </root>
    </mxGraphModel>
  </diagram>
</mxfile>
